<?xml version="1.0" encoding="UTF-8" standalone="no"?>
<!-- Created with Inkscape (http://www.inkscape.org/) -->

<svg
   xmlns:osb="http://www.openswatchbook.org/uri/2009/osb"
   xmlns:dc="http://purl.org/dc/elements/1.1/"
   xmlns:cc="http://creativecommons.org/ns#"
   xmlns:rdf="http://www.w3.org/1999/02/22-rdf-syntax-ns#"
   xmlns:svg="http://www.w3.org/2000/svg"
   xmlns="http://www.w3.org/2000/svg"
   xmlns:sodipodi="http://sodipodi.sourceforge.net/DTD/sodipodi-0.dtd"
   xmlns:inkscape="http://www.inkscape.org/namespaces/inkscape"
   width="744.09448819"
   height="1052.3622047"
   id="svg2995"
   version="1.1"
   inkscape:version="0.48.4 r9939"
   sodipodi:docname="new_meeting.svg">
  <defs
     id="defs2997">
    <inkscape:path-effect
       effect="spiro"
       id="path-effect5837"
       is_visible="true" />
    <linearGradient
       id="linearGradient5441"
       osb:paint="solid">
      <stop
         style="stop-color:#000000;stop-opacity:1;"
         offset="0"
         id="stop5443" />
    </linearGradient>
    <linearGradient
       id="linearGradient5435"
       osb:paint="solid">
      <stop
         style="stop-color:#ff0000;stop-opacity:1;"
         offset="0"
         id="stop5437" />
    </linearGradient>
  </defs>
  <sodipodi:namedview
     id="base"
     pagecolor="#ffffff"
     bordercolor="#666666"
     borderopacity="1.0"
     inkscape:pageopacity="0.0"
     inkscape:pageshadow="2"
     inkscape:zoom="0.73008775"
     inkscape:cx="335.27151"
     inkscape:cy="562.83578"
     inkscape:document-units="px"
     inkscape:current-layer="layer1"
     showgrid="false"
     inkscape:window-width="944"
     inkscape:window-height="1002"
     inkscape:window-x="0"
     inkscape:window-y="0"
     inkscape:window-maximized="0">
    <inkscape:grid
       type="xygrid"
       id="grid5535" />
  </sodipodi:namedview>
  <metadata
     id="metadata3000">
    <rdf:RDF>
      <cc:Work
         rdf:about="">
        <dc:format>image/svg+xml</dc:format>
        <dc:type
           rdf:resource="http://purl.org/dc/dcmitype/StillImage" />
        <dc:title />
      </cc:Work>
    </rdf:RDF>
  </metadata>
  <g
     inkscape:label="Layer 1"
     inkscape:groupmode="layer"
     id="layer1">
    <g
       id="g5903"
       transform="matrix(0.67152387,0,0,0.67152387,-69.7796,-203.06763)">
      <path
         inkscape:connector-curvature="0"
         style="fill:#cecece;fill-opacity:1"
         d="m 197.90625,259.28125 c 0,0 -1.0625,7.72422 -1.0625,14.34375 l 0,12.03125 -43.75,0.28125 c -43.43709,0.27824 -43.77065,0.28564 -46.875,2.5 -6.92913,4.94259 -6.3105,64.74268 -6.125,208.4375 0.18553,143.69482 0.25,199.34375 0.25,199.34375 l 2.21875,3.125 c 1.22,1.71033 3.695,3.8291 5.5,4.71875 2.99154,1.47446 22.09434,1.6042 215.8125,1.625 39.90716,0.004 66.87708,0.0143 93.25,0 -6.23746,-9.18811 -11.08844,-19.37436 -14.21875,-30.3125 l -78.84375,0.0937 c -154.09904,0.20134 -193.37033,-10e-4 -193.75,-1 -0.26189,-0.6889 -0.35989,-81.575 -0.21875,-179.75 l 0.25,-178.5 33.25,-0.25 33.25,-0.28125 0,12.09375 c 0,6.64357 0.49315,12.93616 1.0625,14 l 56.90625,0 c 0.56935,-1.06384 1.03125,-7.36384 1.03125,-14 l 0,-12.0625 68,0 68,0 0,12.0625 c 0,6.63616 0.49315,12.93616 1.0625,14 l 56.90625,0 c 0.56935,-1.06384 1.03125,-7.35643 1.03125,-14 l 0,-12.09375 33.25,0.28125 33.25,0.25 0,179.5 0,44.6875 c 10.73489,1.23425 20.98274,4.05913 30.5,8.25 0.002,-24.94288 -0.002,-23.54906 0,-52.78125 0.009,-109.85002 0.52727,-202.51407 -6.375,-207.4375 -3.10435,-2.21436 -3.43791,-2.22176 -46.875,-2.5 l -43.75,-0.28125 0,-12.03125 c 0,-6.61953 -1.03125,-14.34375 -1.03125,-14.34375 l -56.75,0 c 0,0 -1.21875,5.00278 -1.21875,13.625 l 0,12.8125 -68,0 -68,0 0,-12.8125 c 0,-8.62222 -1.1875,-13.625 -1.1875,-13.625 l -56.75,0 z M 254.125,398 l 0,55.6875 55.5,0 0,-55.6875 -55.5,0 z m 84.3125,0 -0.90625,55.6875 56.0625,0 0,-55.6875 -55.15625,0 z m 82.40625,0 0,55.6875 56.15625,0 0,-55.6875 -56.15625,0 z m -97.5,69.21875 0.75,84.65625 83.5625,-0.34375 -0.15625,-83.6875 -84.15625,-0.625 z m -152.46875,14.375 0,55.90625 55.9375,0 -0.3125,-55.90625 -55.625,0 z m 83.25,0 0,55.90625 55.5,0 0,-55.90625 -55.5,0 z m 166.71875,0 0,55.21875 0.0625,0.6875 56.09375,0 0,-55.90625 -56.15625,0 z M 170.875,564.8125 l 0,56.78125 55.40625,0 0,-56.78125 -55.40625,0 z m 83.25,0 0,56.8125 0.46875,-0.0312 55.03125,0 0,-56.78125 -55.5,0 z m 84.3125,0 0.15625,56.78125 55,0 0,-56.78125 -55.15625,0 z"
         id="path5907"
         transform="translate(65.157132,67.784643)" />
    </g>
    <g
       id="g5539"
       transform="matrix(0.67152387,0,0,0.67152387,30.708602,-339.19583)"
       style="fill:#ffffff">
      <path
         style="fill:none;stroke:#cbcbcb;stroke-width:26;stroke-linecap:butt;stroke-linejoin:round;stroke-miterlimit:4;stroke-opacity:1;stroke-dasharray:none"
         d="m 420.34375,833.09375 c -47.45686,-0.55752 -89.37564,47.10029 -81.40625,94.09375 4.74004,43.67806 49.4507,79.5926 93.5,72.09375 38.74531,-4.45287 72.10067,-39.39494 72.63294,-78.78048 C 507.12698,884.97036 483.90654,849.38261 449.875,838 c -9.43431,-3.44211 -19.41303,-5.17583 -29.53125,-4.90625 z"
         inkscape:connector-curvature="0"
         id="path3016" />
      <path
         inkscape:connector-curvature="0"
         id="path3790"
         d="m 421.76708,866.53335 0,100"
         style="fill:#ffffff;stroke:#cecece;stroke-width:15;stroke-linecap:butt;stroke-linejoin:miter;stroke-miterlimit:4;stroke-opacity:1;stroke-dasharray:none" />
      <path
         inkscape:connector-curvature="0"
         id="path3790-1"
         d="m 471.76708,916.53335 -100,0"
         style="fill:#ffffff;stroke:#cecece;stroke-width:15;stroke-linecap:butt;stroke-linejoin:miter;stroke-miterlimit:4;stroke-opacity:1;stroke-dasharray:none" />
    </g>
    <text
       xml:space="preserve"
       style="font-size:40px;font-style:normal;font-variant:normal;font-weight:normal;font-stretch:normal;line-height:125%;letter-spacing:0px;word-spacing:0px;fill:#919191;fill-opacity:0.80784314;stroke:none;font-family:Lucida Fax;-inkscape-font-specification:Lucida Fax"
       x="5.4804688"
       y="384.15906"
       id="text5647"
       sodipodi:linespacing="125%"><tspan
         sodipodi:role="line"
         id="tspan5649"
         x="5.4804688"
         y="384.15906">Schedule a meeting</tspan></text>
  </g>
</svg>
