<?xml version="1.0" encoding="UTF-8" standalone="no"?>
<!-- Created with Inkscape (http://www.inkscape.org/) -->

<svg
   xmlns:osb="http://www.openswatchbook.org/uri/2009/osb"
   xmlns:dc="http://purl.org/dc/elements/1.1/"
   xmlns:cc="http://creativecommons.org/ns#"
   xmlns:rdf="http://www.w3.org/1999/02/22-rdf-syntax-ns#"
   xmlns:svg="http://www.w3.org/2000/svg"
   xmlns="http://www.w3.org/2000/svg"
   xmlns:sodipodi="http://sodipodi.sourceforge.net/DTD/sodipodi-0.dtd"
   xmlns:inkscape="http://www.inkscape.org/namespaces/inkscape"
   width="744.09448819"
   height="1052.3622047"
   id="svg2995"
   version="1.1"
   inkscape:version="0.48.4 r9939"
   sodipodi:docname="New document 3">
  <defs
     id="defs2997">
    <inkscape:path-effect
       effect="spiro"
       id="path-effect5837"
       is_visible="true" />
    <linearGradient
       id="linearGradient5441"
       osb:paint="solid">
      <stop
         style="stop-color:#000000;stop-opacity:1;"
         offset="0"
         id="stop5443" />
    </linearGradient>
    <linearGradient
       id="linearGradient5435"
       osb:paint="solid">
      <stop
         style="stop-color:#ff0000;stop-opacity:1;"
         offset="0"
         id="stop5437" />
    </linearGradient>
  </defs>
  <sodipodi:namedview
     id="base"
     pagecolor="#ffffff"
     bordercolor="#666666"
     borderopacity="1.0"
     inkscape:pageopacity="0.0"
     inkscape:pageshadow="2"
     inkscape:zoom="0.51625"
     inkscape:cx="471.88179"
     inkscape:cy="597.53913"
     inkscape:document-units="px"
     inkscape:current-layer="layer1"
     showgrid="false"
     inkscape:window-width="1920"
     inkscape:window-height="1018"
     inkscape:window-x="-8"
     inkscape:window-y="-8"
     inkscape:window-maximized="1">
    <inkscape:grid
       type="xygrid"
       id="grid5535" />
  </sodipodi:namedview>
  <metadata
     id="metadata3000">
    <rdf:RDF>
      <cc:Work
         rdf:about="">
        <dc:format>image/svg+xml</dc:format>
        <dc:type
           rdf:resource="http://purl.org/dc/dcmitype/StillImage" />
        <dc:title></dc:title>
      </cc:Work>
    </rdf:RDF>
  </metadata>
  <g
     inkscape:label="Layer 1"
     inkscape:groupmode="layer"
     id="layer1">
    <g
       id="g5903">
      <path
         style="fill:#cecece;fill-opacity:1"
         d="m 173.23237,771.84196 c -1.805,-0.88965 -4.28,-3.0169 -5.5,-4.72723 l -2.21818,-3.10969 c 0,0 -0.0718,-55.63861 -0.25733,-199.33343 -0.1855,-143.69482 -0.79851,-203.49367 6.13062,-208.43626 3.10435,-2.21436 3.43962,-2.23231 46.87671,-2.51055 l 43.75,-0.28024 0,-12.0355 c 0,-6.61953 1.03518,-14.33689 1.03518,-14.33689 l 56.76482,0 c 0,0 1.2,5.01065 1.2,13.63287 l 0,12.8 68,0 68,0 0,-12.8 c 0,-8.62222 1.2,-13.63287 1.2,-13.63287 l 56.76482,0 c 0,0 1.03518,7.71736 1.03518,14.33689 l 0,12.0355 43.75,0.28024 c 43.43709,0.27824 43.77236,0.29619 46.87671,2.51055 6.90227,4.92343 6.36595,97.5708 6.35684,207.42082 -0.009,109.85002 -0.0165,198.34887 -0.0165,198.34887 l -2.23355,3.8959 c -1.22845,2.14274 -3.80153,4.73024 -5.71795,5.75 -3.36192,1.78893 -10.95425,1.8533 -216,1.83133 -193.71816,-0.0208 -212.80588,-0.16585 -215.79742,-1.64031 z m 409.28182,-208.33692 0,-179.5 -33.25,-0.26348 -33.25,-0.26348 0,12.07922 c 0,6.64357 -0.46583,12.94964 -1.03518,14.01348 l -56.92964,0 c -0.56935,-1.06384 -1.03518,-7.36384 -1.03518,-14 l 0,-12.06574 -68,0 -68,0 0,12.06574 c 0,6.63616 -0.46583,12.93616 -1.03518,14 l -56.92964,0 c -0.56935,-1.06384 -1.03518,-7.36991 -1.03518,-14.01348 l 0,-12.07922 -33.25,0.26348 -33.25,0.26348 -0.25662,178.5 c -0.14114,98.175 -0.0423,179.06364 0.21959,179.75254 0.37967,0.99863 39.65758,1.20134 193.75662,1 l 193.28041,-0.25254 z m -346.48305,125.88313 0,-56.79392 55.41162,0 0,56.79392 z m 83.25662,0.0367 0,-56.83069 55.5093,0 0,56.79397 -55.03287,0 z m 84.47643,0 -0.16821,-56.83069 55.14758,0 0,56.79397 -54.97937,0 z m -14.51112,-69.7511 -0.73888,-84.6688 84.13404,0.61124 0.16596,83.68876 z m -153.22193,-14.38593 0,-55.91595 55.61095,0 0.33693,55.91595 z m 83.25662,0 0,-55.91595 55.5093,0 0,55.91595 z m 166.71893,-0.70142 0,-55.21453 56.14057,0 0,55.91595 -56.08946,0 z m -166.71893,-83.12235 0,-55.68848 55.5093,0 0,55.68848 z m 83.3931,0 0.91512,-55.68848 55.14758,0 0,55.68848 z m 83.32583,0 0,-55.68848 56.14057,0 0,55.68848 z"
         id="path5907"
         inkscape:connector-curvature="0"
         sodipodi:nodetypes="csczsscsccscccsccscsszcsssccccccsccscccsccscccscsccccccccccccccccccccccccccccccccccccccccccccccccccccccc" />
    </g>
    <g
       id="g5539"
       transform="translate(147.92742,-202.71536)"
       style="fill:#ffffff">
      <path
         inkscape:connector-curvature="0"
         id="path3016"
         d="m 513.02409,916.53319 c 0.61241,38.9621 -26.77268,76.14444 -64.14282,87.18571 -35.90679,11.6518 -78.13339,-1.9203 -100.30027,-32.56573 -24.108,-31.18374 -24.108,-78.05623 0,-109.23998 22.16688,-30.64518 64.39348,-44.2172 100.30027,-32.56535 37.49864,11.19785 64.65674,48.03803 64.14282,87.18535 z"
         style="fill:#ffffff;stroke:#cbcbcb;stroke-width:30;stroke-linecap:butt;stroke-linejoin:round;stroke-miterlimit:4;stroke-opacity:1;stroke-dasharray:none" />
      <path
         inkscape:connector-curvature="0"
         id="path3790"
         d="m 421.76708,866.53335 0,100"
         style="fill:#ffffff;stroke:#cecece;stroke-width:15;stroke-linecap:butt;stroke-linejoin:miter;stroke-miterlimit:4;stroke-opacity:1;stroke-dasharray:none" />
      <path
         inkscape:connector-curvature="0"
         id="path3790-1"
         d="m 471.76708,916.53335 -100,0"
         style="fill:#ffffff;stroke:#cecece;stroke-width:15;stroke-linecap:butt;stroke-linejoin:miter;stroke-miterlimit:4;stroke-opacity:1;stroke-dasharray:none" />
    </g>
    <path
       style="fill:none;stroke:#ffffff;stroke-width:8.29999924;stroke-linecap:butt;stroke-linejoin:round;stroke-miterlimit:4;stroke-opacity:1;stroke-dasharray:none"
       d="m 567.03125,607.71875 c -59.14595,1.09201 -110.1063,59.29761 -103.3125,118.125 6.94818,59.01559 69.80723,105.01355 128.25,92.15625 54.74659,-11.9629 94.35116,-72.35646 81.09375,-127.34375 C 661.65991,643.68895 616.001,606.14 567.03125,607.71875 z"
       id="path3016-8"
       inkscape:connector-curvature="0" />
    <text
       xml:space="preserve"
       style="font-size:72px;font-style:normal;font-variant:normal;font-weight:normal;font-stretch:normal;line-height:125%;letter-spacing:0px;word-spacing:0px;fill:#cecece;fill-opacity:1;stroke:none;font-family:Cambria;-inkscape-font-specification:Cambria"
       x="145.18802"
       y="885.99835"
       id="text5647"
       sodipodi:linespacing="125%"><tspan
         sodipodi:role="line"
         id="tspan5649"
         x="145.18802"
         y="885.99835">Make a meeting</tspan></text>
  </g>
</svg>
